<svg width="174" height="174" viewBox="0 0 174 174" fill="none" xmlns="http://www.w3.org/2000/svg">
<path fill-rule="evenodd" clip-rule="evenodd" d="M0 21V42H21H42V21V0H21H0V21ZM54 3C54 4.9995 55.0005 6 57 6C58.9995 6 60 4.9995 60 3C60 1.0005 58.9995 0 57 0C55.0005 0 54 1.0005 54 3ZM72 3C72 4.9995 70.9995 6 69 6C67.0005 6 66 7.0005 66 9C66 11.5005 64.9995 12 60 12H54V21C54 28.9995 53.667 30 51 30C48.4995 30 48 31.0005 48 36C48 40.9995 48.4995 42 51 42C52.9995 42 54 43.0005 54 45C54 46.9995 52.9995 48 51 48C48.4995 48 48 49.0005 48 54V60H42C37.0005 60 36 59.5005 36 57C36 55.0005 37.0005 54 39 54C40.9995 54 42 52.9995 42 51C42 48.4995 40.9995 48 36 48C31.0005 48 30 48.4995 30 51C30 52.9995 28.9995 54 27 54C25.0005 54 24 52.9995 24 51C24 49.0005 22.9995 48 21 48C19.0005 48 18 49.0005 18 51C18 52.9995 19.0005 54 21 54C22.9995 54 24 55.0005 24 57C24 59.5005 25.0005 60 30 60C34.9995 60 36 60.4995 36 63C36 64.9995 34.9995 66 33 66C31.0005 66 30 67.0005 30 69C30 70.9995 28.9995 72 27 72C25.0005 72 24 70.9995 24 69C24 67.0005 22.9995 66 21 66C19.0005 66 18 67.0005 18 69C18 71.5005 16.9995 72 12 72C7.0005 72 6 71.5005 6 69C6 67.0005 7.0005 66 9 66C11.5005 66 12 64.9995 12 60C12 55.0005 11.5005 54 9 54C7.0005 54 6 52.9995 6 51C6 49.0005 4.9995 48 3 48C1.0005 48 0 49.0005 0 51C0 52.9995 1.0005 54 3 54C4.9995 54 6 55.0005 6 57C6 58.9995 4.9995 60 3 60C0.333 60 0 61.0005 0 69C0 76.9995 0.333 78 3 78C4.9995 78 6 79.0005 6 81C6 82.9995 7.0005 84 9 84C10.9995 84 12 82.9995 12 81C12 79.0005 13.0005 78 15 78C17.667 78 18 79.0005 18 87V96H24C28.9995 96 30 95.5005 30 93C30 91.0005 28.9995 90 27 90C24.4995 90 24 88.9995 24 84V78H33C40.9995 78 42 77.667 42 75C42 73.0005 40.9995 72 39 72C37.0005 72 36 70.9995 36 69C36 66.4995 37.0005 66 42 66C46.9995 66 48 65.5005 48 63C48 61.0005 49.0005 60 51 60C53.5005 60 54 61.0005 54 66C54 70.9995 53.5005 72 51 72C48.4995 72 48 73.0005 48 78V84H42C37.0005 84 36 84.4995 36 87C36 88.9995 37.0005 90 39 90C40.9995 90 42 91.0005 42 93C42 94.9995 40.9995 96 39 96C37.0005 96 36 97.0005 36 99C36 101.501 37.0005 102 42 102H48V93C48 85.0005 48.333 84 51 84C52.9995 84 54 85.0005 54 87C54 89.5005 55.0005 90 60 90C64.9995 90 66 89.5005 66 87C66 85.0005 67.0005 84 69 84C71.5005 84 72 82.9995 72 78V72H78C82.9995 72 84 72.4995 84 75C84 76.9995 82.9995 78 81 78C78.4995 78 78 79.0005 78 84C78 88.9995 77.5005 90 75 90C73.0005 90 72 91.0005 72 93C72 95.5005 70.9995 96 66 96C61.0005 96 60 96.4995 60 99C60 100.999 61.0005 102 63 102C64.9995 102 66 103.001 66 105C66 107.501 64.9995 108 60 108C55.0005 108 54 108.499 54 111C54 112.999 52.9995 114 51 114C49.0005 114 48 112.999 48 111C48 108.333 46.9995 108 39 108C31.0005 108 30 107.667 30 105C30 102.333 28.9995 102 21 102C13.0005 102 12 101.667 12 99C12 96.4995 10.9995 96 6 96H0V102C0 106.999 0.4995 108 3 108C4.9995 108 6 109.001 6 111C6 112.999 4.9995 114 3 114C1.0005 114 0 115.001 0 117C0 118.999 1.0005 120 3 120C4.9995 120 6 121.001 6 123C6 124.999 7.0005 126 9 126C10.9995 126 12 124.999 12 123C12 120.333 13.0005 120 21 120C28.9995 120 30 120.333 30 123C30 125.667 31.0005 126 39 126C46.9995 126 48 126.333 48 129C48 131.8 49.0005 132 63 132C76.9995 132 78 131.8 78 129C78 126.499 76.9995 126 72 126C67.0005 126 66 125.501 66 123C66 121.001 64.9995 120 63 120C61.0005 120 60 118.999 60 117C60 115.001 61.0005 114 63 114C64.9995 114 66 112.999 66 111C66 109.001 67.0005 108 69 108C70.9995 108 72 109.001 72 111C72 112.999 73.0005 114 75 114C76.9995 114 78 112.999 78 111C78 109.001 79.0005 108 81 108C83.5005 108 84 109.001 84 114V120H90C94.9995 120 96 119.501 96 117C96 115.001 97.0005 114 99 114C100.999 114 102 115.001 102 117C102 118.999 103.001 120 105 120C106.999 120 108 121.001 108 123C108 124.999 109.001 126 111 126C112.999 126 114 124.999 114 123C114 121.001 112.999 120 111 120C109.001 120 108 118.999 108 117C108 115.001 109.001 114 111 114C112.999 114 114 112.999 114 111C114 108.499 112.999 108 108 108C103.001 108 102 107.501 102 105C102 103.001 103.001 102 105 102C106.999 102 108 100.999 108 99C108 97.0005 109.001 96 111 96C112.999 96 114 97.0005 114 99C114 100.999 115.001 102 117 102C119.501 102 120 103.001 120 108V114H126C130.999 114 132 114.499 132 117C132 119.501 130.999 120 126 120H120V129C120 137 119.667 138 117 138C115.001 138 114 139.001 114 141C114 142.999 115.001 144 117 144C119.501 144 120 145.001 120 150C120 154.999 120.499 156 123 156C124.999 156 126 154.999 126 153C126 151.001 127.001 150 129 150C130.999 150 132 151.001 132 153C132 155.501 133.001 156 138 156C142.999 156 144 156.499 144 159C144 161.667 145 162 153 162H162V168C162 172.999 162.499 174 165 174C167.501 174 168 172.999 168 168C168 163.001 168.499 162 171 162C172.999 162 174 160.999 174 159C174 157.001 172.999 156 171 156C169.001 156 168 154.999 168 153C168 151.001 169.001 150 171 150C173.501 150 174 148.999 174 144C174 139.001 173.501 138 171 138C169.001 138 168 136.999 168 135C168 133.001 169.001 132 171 132C172.999 132 174 130.999 174 129C174 126.499 172.999 126 168 126C163.001 126 162 125.501 162 123C162 120.499 163.001 120 168 120H174V111C174 103 173.667 102 171 102C168.499 102 168 100.999 168 96C168 91.0005 168.499 90 171 90C172.999 90 174 88.9995 174 87C174 84.2505 173 84 162 84H150V90C150 94.9995 150.499 96 153 96C154.999 96 156 94.9995 156 93C156 91.0005 157.001 90 159 90C161.501 90 162 91.0005 162 96C162 100.999 162.499 102 165 102C166.999 102 168 103.001 168 105C168 106.999 166.999 108 165 108C162.499 108 162 109.001 162 114C162 118.999 161.501 120 159 120C156.499 120 156 121.001 156 126C156 130.999 156.499 132 159 132C160.999 132 162 133.001 162 135C162 137.501 160.999 138 156 138H150V129C150 121 149.667 120 147 120C145.001 120 144 118.999 144 117C144 115.001 145.001 114 147 114C148.999 114 150 112.999 150 111C150 109.001 151.001 108 153 108C154.999 108 156 106.999 156 105C156 103.001 154.999 102 153 102C151.001 102 150 103.001 150 105C150 106.999 148.999 108 147 108C144.251 108 144 107 144 96C144 85.0005 143.749 84 141 84C139.001 84 138 85.0005 138 87C138 88.9995 136.999 90 135 90C132.499 90 132 88.9995 132 84V78H138H144V72V66H150C154.999 66 156 66.4995 156 69C156 70.9995 154.999 72 153 72C151.001 72 150 73.0005 150 75C150 76.9995 151.001 78 153 78C154.999 78 156 76.9995 156 75C156 73.0005 157.001 72 159 72C160.999 72 162 73.0005 162 75C162 77.5005 163.001 78 168 78C172.999 78 174 77.5005 174 75C174 73.0005 172.999 72 171 72C168.499 72 168 70.9995 168 66C168 61.0005 168.499 60 171 60C172.999 60 174 58.9995 174 57C174 55.0005 172.999 54 171 54C169.001 54 168 55.0005 168 57C168 59.5005 166.999 60 162 60C157.001 60 156 59.5005 156 57C156 55.0005 154.999 54 153 54C151.001 54 150 55.0005 150 57C150 58.9995 148.999 60 147 60C145.001 60 144 61.0005 144 63C144 64.9995 142.999 66 141 66C138.499 66 138 64.9995 138 60C138 55.0005 138.499 54 141 54C142.999 54 144 52.9995 144 51C144 49.0005 142.999 48 141 48C139.001 48 138 49.0005 138 51C138 52.9995 136.999 54 135 54C133.001 54 132 52.9995 132 51C132 49.0005 130.999 48 129 48C126.333 48 126 46.9995 126 39V30H117H108V36C108 40.9995 107.501 42 105 42C103.001 42 102 40.9995 102 39C102 37.0005 100.999 36 99 36C97.0005 36 96 34.9995 96 33C96 31.0005 97.0005 30 99 30C100.999 30 102 28.9995 102 27C102 24.4995 100.999 24 96 24C91.0005 24 90 23.5005 90 21C90 19.0005 88.9995 18 87 18C84.1995 18 84 19.0005 84 33C84 46.9995 83.8005 48 81 48C78.2505 48 78 46.9995 78 36C78 25.0005 77.7495 24 75 24C73.0005 24 72 25.0005 72 27C72 28.9995 70.9995 30 69 30C67.0005 30 66 31.0005 66 33C66 34.9995 64.9995 36 63 36C60.333 36 60 34.9995 60 27V18H69C76.9995 18 78 17.667 78 15C78 12.333 79.0005 12 87 12C94.9995 12 96 12.333 96 15C96 17.5005 97.0005 18 102 18C106.999 18 108 18.4995 108 21C108 23.5005 109.001 24 114 24C118.999 24 120 23.5005 120 21C120 19.0005 121.001 18 123 18C125.501 18 126 16.9995 126 12C126 7.0005 125.501 6 123 6C121.001 6 120 4.9995 120 3C120 0.333 119 0 111 0H102V6C102 10.9995 101.501 12 99 12C96.4995 12 96 10.9995 96 6V0H84C73.0005 0 72 0.2505 72 3ZM132 21V42H153H174V21V0H153H132V21ZM36 21V36H21H6V21V6H21H36V21ZM78 9C78 10.9995 76.9995 12 75 12C73.0005 12 72 10.9995 72 9C72 7.0005 73.0005 6 75 6C76.9995 6 78 7.0005 78 9ZM120 9C120 10.9995 118.999 12 117 12C115.001 12 114 13.0005 114 15C114 16.9995 112.999 18 111 18C108.499 18 108 16.9995 108 12V6H114C118.999 6 120 6.4995 120 9ZM168 21V36H153H138V21V6H153H168V21ZM12 21V30H21H30V21V12H21H12V21ZM144 21V30H153H162V21V12H153H144V21ZM60 39C60 40.9995 61.0005 42 63 42C64.9995 42 66 40.9995 66 39C66 37.0005 67.0005 36 69 36C70.9995 36 72 37.0005 72 39C72 40.9995 70.9995 42 69 42C67.0005 42 66 43.0005 66 45C66 46.9995 64.9995 48 63 48C60.4995 48 60 49.0005 60 54C60 58.9995 59.5005 60 57 60C54.4995 60 54 58.9995 54 54C54 49.0005 54.4995 48 57 48C58.9995 48 60 46.9995 60 45C60 43.0005 58.9995 42 57 42C55.0005 42 54 40.9995 54 39C54 37.0005 55.0005 36 57 36C58.9995 36 60 37.0005 60 39ZM96 39C96 40.9995 97.0005 42 99 42C100.999 42 102 43.0005 102 45C102 46.9995 103.001 48 105 48C106.999 48 108 46.9995 108 45C108 43.0005 109.001 42 111 42C112.999 42 114 40.9995 114 39C114 37.0005 115.001 36 117 36C118.999 36 120 37.0005 120 39C120 40.9995 118.999 42 117 42C114.499 42 114 43.0005 114 48C114 52.9995 114.499 54 117 54C118.999 54 120 52.9995 120 51C120 49.0005 121.001 48 123 48C124.999 48 126 49.0005 126 51C126 52.9995 127.001 54 129 54C131.501 54 132 55.0005 132 60C132 64.9995 132.499 66 135 66C136.999 66 138 67.0005 138 69C138 71.5005 136.999 72 132 72H126V87C126 101 126.2 102 129 102C130.999 102 132 100.999 132 99C132 97.0005 133.001 96 135 96C136.999 96 138 97.0005 138 99C138 100.999 136.999 102 135 102C133.001 102 132 103.001 132 105C132 106.999 130.999 108 129 108C127.001 108 126 106.999 126 105C126 103.001 124.999 102 123 102C121.001 102 120 100.999 120 99C120 97.0005 118.999 96 117 96C115.001 96 114 94.9995 114 93C114 91.0005 112.999 90 111 90C109.001 90 108 88.9995 108 87C108 84.4995 109.001 84 114 84C118.999 84 120 83.5005 120 81C120 78.4995 118.999 78 114 78C109.001 78 108 77.5005 108 75C108 73.0005 106.999 72 105 72C102.2 72 102 73.0005 102 87C102 101 101.8 102 99 102C96.4995 102 96 103.001 96 108C96 112.999 95.5005 114 93 114C90.4995 114 90 112.999 90 108C90 103.001 89.5005 102 87 102C85.0005 102 84 100.999 84 99C84 97.0005 82.9995 96 81 96C78.4995 96 78 97.0005 78 102C78 106.999 77.5005 108 75 108C72.4995 108 72 106.999 72 102C72 97.0005 72.4995 96 75 96C76.9995 96 78 94.9995 78 93C78 90.4995 79.0005 90 84 90C88.9995 90 90 89.5005 90 87C90 85.0005 88.9995 84 87 84C85.0005 84 84 82.9995 84 81C84 79.0005 85.0005 78 87 78C88.9995 78 90 76.9995 90 75C90 73.0005 88.9995 72 87 72C85.0005 72 84 70.9995 84 69C84 67.0005 82.9995 66 81 66C79.0005 66 78 64.9995 78 63C78 60.4995 76.9995 60 72 60C67.0005 60 66 59.5005 66 57C66 54.333 67.0005 54 75 54C82.9995 54 84 53.667 84 51C84 49.0005 85.0005 48 87 48C88.9995 48 90 49.0005 90 51C90 52.9995 91.0005 54 93 54C94.9995 54 96 55.0005 96 57C96 58.9995 97.0005 60 99 60C101.501 60 102 58.9995 102 54C102 49.0005 101.501 48 99 48C97.0005 48 96 46.9995 96 45C96 43.0005 94.9995 42 93 42C91.0005 42 90 40.9995 90 39C90 37.0005 91.0005 36 93 36C94.9995 36 96 37.0005 96 39ZM108 63C108 65.5005 109.001 66 114 66C118.999 66 120 66.4995 120 69C120 70.9995 121.001 72 123 72C125.501 72 126 70.9995 126 66V60H117C109 60 108 60.333 108 63ZM72 69C72 70.9995 70.9995 72 69 72C67.0005 72 66 73.0005 66 75C66 77.5005 64.9995 78 60 78C55.0005 78 54 77.5005 54 75C54 73.0005 55.0005 72 57 72C58.9995 72 60 70.9995 60 69C60 66.4995 61.0005 66 66 66C70.9995 66 72 66.4995 72 69ZM90 69C90 70.9995 91.0005 72 93 72C94.9995 72 96 70.9995 96 69C96 67.0005 94.9995 66 93 66C91.0005 66 90 67.0005 90 69ZM90 93C90 94.9995 91.0005 96 93 96C94.9995 96 96 94.9995 96 93C96 91.0005 94.9995 90 93 90C91.0005 90 90 91.0005 90 93ZM12 105C12 106.999 10.9995 108 9 108C7.0005 108 6 106.999 6 105C6 103.001 7.0005 102 9 102C10.9995 102 12 103.001 12 105ZM30 111C30 113.501 28.9995 114 24 114C19.0005 114 18 113.501 18 111C18 108.499 19.0005 108 24 108C28.9995 108 30 108.499 30 111ZM42 117C42 118.999 40.9995 120 39 120C37.0005 120 36 118.999 36 117C36 115.001 37.0005 114 39 114C40.9995 114 42 115.001 42 117ZM84 129C84 130.999 85.0005 132 87 132C88.9995 132 90 130.999 90 129C90 127.001 88.9995 126 87 126C85.0005 126 84 127.001 84 129ZM96 135C96 143 95.667 144 93 144C91.0005 144 90 142.999 90 141C90 139.001 88.9995 138 87 138C85.0005 138 84 139.001 84 141C84 142.999 85.0005 144 87 144C88.9995 144 90 145.001 90 147C90 148.999 91.0005 150 93 150C94.9995 150 96 151.001 96 153C96 154.999 97.0005 156 99 156C100.999 156 102 157.001 102 159C102 160.999 100.999 162 99 162C97.0005 162 96 163.001 96 165C96 166.999 94.9995 168 93 168C90.4995 168 90 166.999 90 162C90 157.001 89.5005 156 87 156C85.0005 156 84 154.999 84 153C84 151.001 82.9995 150 81 150C79.0005 150 78 151.001 78 153C78 154.999 76.9995 156 75 156C72.333 156 72 155 72 147V138H66C61.0005 138 60 138.499 60 141C60 142.999 61.0005 144 63 144C64.9995 144 66 145.001 66 147C66 148.999 64.9995 150 63 150C61.0005 150 60 151.001 60 153C60 154.999 58.9995 156 57 156C55.0005 156 54 154.999 54 153C54 151.001 52.9995 150 51 150C49.0005 150 48 151.001 48 153C48 154.999 49.0005 156 51 156C53.5005 156 54 157.001 54 162C54 166.999 53.5005 168 51 168C49.0005 168 48 169.001 48 171C48 172.999 49.0005 174 51 174C52.9995 174 54 172.999 54 171C54 169.001 55.0005 168 57 168C58.9995 168 60 166.999 60 165C60 162.499 61.0005 162 66 162C70.9995 162 72 162.499 72 165C72 166.999 73.0005 168 75 168C76.9995 168 78 169.001 78 171C78 173.667 79.0005 174 87 174C94.9995 174 96 173.667 96 171C96 169.001 97.0005 168 99 168C100.999 168 102 169.001 102 171C102 172.999 103.001 174 105 174C106.999 174 108 172.999 108 171C108 169.001 109.001 168 111 168C112.999 168 114 169.001 114 171C114 173.8 115 174 129 174C143 174 144 173.8 144 171C144 169.001 142.999 168 141 168C139.001 168 138 166.999 138 165C138 162.333 137 162 129 162C121 162 120 162.333 120 165C120 166.999 118.999 168 117 168C114.499 168 114 166.999 114 162V156H108C103.001 156 102 155.501 102 153C102 151.001 103.001 150 105 150C106.999 150 108 148.999 108 147C108 145.001 106.999 144 105 144C103.001 144 102 142.999 102 141C102 139.001 103.001 138 105 138C106.999 138 108 136.999 108 135C108 133.001 106.999 132 105 132C103.001 132 102 130.999 102 129C102 127.001 100.999 126 99 126C96.333 126 96 127 96 135ZM144 135V144H135H126V135V126H135H144V135ZM0 153V174H21H42V153V132H21H0V153ZM132 135C132 136.999 133.001 138 135 138C136.999 138 138 136.999 138 135C138 133.001 136.999 132 135 132C133.001 132 132 133.001 132 135ZM36 153V168H21H6V153V138H21H36V153ZM48 141C48 142.999 49.0005 144 51 144C52.9995 144 54 142.999 54 141C54 139.001 52.9995 138 51 138C49.0005 138 48 139.001 48 141ZM168 141C168 142.999 166.999 144 165 144C163.001 144 162 145.001 162 147C162 149.501 160.999 150 156 150C151.001 150 150 149.501 150 147C150 144.499 151.001 144 156 144C160.999 144 162 143.501 162 141C162 139.001 163.001 138 165 138C166.999 138 168 139.001 168 141ZM12 153V162H21H30V153V144H21H12V153ZM84 162C84 166.999 83.5005 168 81 168C78.4995 168 78 166.999 78 162C78 157.001 78.4995 156 81 156C83.5005 156 84 157.001 84 162ZM168 159C168 160.999 166.999 162 165 162C163.001 162 162 160.999 162 159C162 157.001 163.001 156 165 156C166.999 156 168 157.001 168 159ZM150 171C150 172.999 151.001 174 153 174C154.999 174 156 172.999 156 171C156 169.001 154.999 168 153 168C151.001 168 150 169.001 150 171Z" fill="#1C2025"/>
</svg>
